<svg version="1.0" xmlns="http://www.w3.org/2000/svg"
     viewBox="0 0 155 95" color-interpolation-filters="sRGB"
     width="512"
     height="512"
     >

    <g id="logo">
        <path id="logo-d" d="M37.23 0H0v74.45h37.23a37.23 37.23 0 0 0 0-74.45z" fill="#4377bb"/>

        <path id="logo-v" transform="translate(80, 0)" fill="#cfe2f3" d="M74.45 0L37.23 74.45 0 0h74.45z"/>
    </g>

    <g id="slogan" transform="translate(35, 100)">
        <rect fill="#cfe2f3" height="1" x="-25" y="-4" width="20"/>
        <rect fill="#cfe2f3" height="1" x="95" y="-4" width="20"/>

        <path fill="#cfe2f3"
              d="M0.62-3.94L0.62-3.94Q0.62-4.88 0.89-5.64Q1.15-6.40 1.62-6.92Q2.09-7.45 2.73-7.73Q3.37-8.02 4.13-8.02L4.13-8.02Q4.85-8.02 5.39-7.72Q5.93-7.43 6.28-7.04L6.28-7.04L5.71-6.41Q5.40-6.74 5.02-6.94Q4.64-7.14 4.14-7.14L4.14-7.14Q3.58-7.14 3.12-6.92Q2.66-6.70 2.34-6.28Q2.02-5.87 1.84-5.28Q1.66-4.69 1.66-3.96L1.66-3.96Q1.66-3.22 1.83-2.62Q2.00-2.03 2.32-1.61Q2.63-1.19 3.08-0.96Q3.53-0.73 4.09-0.73L4.09-0.73Q4.67-0.73 5.09-0.96Q5.52-1.19 5.90-1.61L5.90-1.61L6.47-1.00Q6-0.46 5.41-0.16Q4.82 0.14 4.07 0.14L4.07 0.14Q3.32 0.14 2.69-0.13Q2.06-0.41 1.60-0.93Q1.14-1.45 0.88-2.21Q0.62-2.98 0.62-3.94ZM10.49 0.14L10.49 0.14Q9.74 0.14 9.13-0.14Q8.51-0.43 8.06-0.97Q7.62-1.50 7.37-2.26Q7.13-3.02 7.13-3.97L7.13-3.97Q7.13-4.92 7.37-5.67Q7.62-6.42 8.06-6.94Q8.51-7.46 9.13-7.74Q9.74-8.02 10.49-8.02L10.49-8.02Q11.23-8.02 11.85-7.73Q12.47-7.45 12.92-6.93Q13.37-6.41 13.61-5.66Q13.86-4.91 13.86-3.97L13.86-3.97Q13.86-3.02 13.61-2.26Q13.37-1.50 12.92-0.97Q12.47-0.43 11.85-0.14Q11.23 0.14 10.49 0.14ZM10.49-0.73L10.49-0.73Q11.02-0.73 11.44-0.96Q11.87-1.19 12.17-1.61Q12.48-2.04 12.65-2.63Q12.82-3.23 12.82-3.97L12.82-3.97Q12.82-4.70 12.65-5.29Q12.48-5.88 12.17-6.29Q11.87-6.70 11.44-6.92Q11.02-7.14 10.49-7.14L10.49-7.14Q9.96-7.14 9.53-6.92Q9.11-6.70 8.80-6.29Q8.50-5.88 8.33-5.29Q8.16-4.70 8.16-3.97L8.16-3.97Q8.16-3.23 8.33-2.63Q8.50-2.04 8.80-1.61Q9.11-1.19 9.53-0.96Q9.96-0.73 10.49-0.73ZM15.55 0L15.55-7.87L16.55-7.87L16.55-0.85L19.99-0.85L19.99 0L15.55 0ZM23.98 0.14L23.98 0.14Q23.23 0.14 22.61-0.14Q22.00-0.43 21.55-0.97Q21.11-1.50 20.86-2.26Q20.62-3.02 20.62-3.97L20.62-3.97Q20.62-4.92 20.86-5.67Q21.11-6.42 21.55-6.94Q22.00-7.46 22.61-7.74Q23.23-8.02 23.98-8.02L23.98-8.02Q24.72-8.02 25.34-7.73Q25.96-7.45 26.41-6.93Q26.86-6.41 27.10-5.66Q27.35-4.91 27.35-3.97L27.35-3.97Q27.35-3.02 27.10-2.26Q26.86-1.50 26.41-0.97Q25.96-0.43 25.34-0.14Q24.72 0.14 23.98 0.14ZM23.98-0.73L23.98-0.73Q24.50-0.73 24.93-0.96Q25.36-1.19 25.66-1.61Q25.97-2.04 26.14-2.63Q26.30-3.23 26.30-3.97L26.30-3.97Q26.30-4.70 26.14-5.29Q25.97-5.88 25.66-6.29Q25.36-6.70 24.93-6.92Q24.50-7.14 23.98-7.14L23.98-7.14Q23.45-7.14 23.02-6.92Q22.60-6.70 22.29-6.29Q21.98-5.88 21.82-5.29Q21.65-4.70 21.65-3.97L21.65-3.97Q21.65-3.23 21.82-2.63Q21.98-2.04 22.29-1.61Q22.60-1.19 23.02-0.96Q23.45-0.73 23.98-0.73ZM29.04 0L29.04-7.87L30.22-7.87L31.74-3.65L32.32-2.04L32.36-2.04L32.92-3.65L34.43-7.87L35.60-7.87L35.60 0L34.66 0L34.66-4.33Q34.66-4.86 34.70-5.50Q34.74-6.13 34.79-6.66L34.79-6.66L34.74-6.66L34.10-4.91L32.59-0.79L32.03-0.79L30.50-4.91L29.88-6.66L29.83-6.66Q29.87-6.13 29.92-5.50Q29.96-4.86 29.96-4.33L29.96-4.33L29.96 0L29.04 0ZM37.76 0L37.76-7.87L40.10-7.87Q40.70-7.87 41.20-7.76Q41.70-7.66 42.05-7.43Q42.41-7.20 42.61-6.83Q42.80-6.47 42.80-5.95L42.80-5.95Q42.80-5.36 42.47-4.89Q42.13-4.42 41.44-4.24L41.44-4.24L41.44-4.19Q42.30-4.06 42.78-3.59Q43.26-3.12 43.26-2.30L43.26-2.30Q43.26-1.73 43.04-1.30Q42.83-0.86 42.43-0.58Q42.04-0.29 41.48-0.14Q40.93 0 40.27 0L40.27 0L37.76 0ZM38.76-4.51L39.92-4.51Q40.94-4.51 41.38-4.86Q41.82-5.21 41.82-5.87L41.82-5.87Q41.82-6.52 41.36-6.80Q40.90-7.08 39.97-7.08L39.97-7.08L38.76-7.08L38.76-4.51ZM38.76-0.79L40.13-0.79Q41.15-0.79 41.71-1.17Q42.28-1.55 42.28-2.35L42.28-2.35Q42.28-3.08 41.72-3.43Q41.17-3.77 40.13-3.77L40.13-3.77L38.76-3.77L38.76-0.79ZM45.80-3.20L48.17-3.20L47.80-4.40Q47.58-5.06 47.39-5.72Q47.20-6.37 47.00-7.06L47.00-7.06L46.96-7.06Q46.78-6.37 46.58-5.72Q46.39-5.06 46.18-4.40L46.18-4.40L45.80-3.20ZM49.16 0L48.42-2.40L45.55-2.40L44.80 0L43.78 0L46.44-7.87L47.57-7.87L50.23 0L49.16 0ZM51.35 0L51.35-7.87L52.38-7.87L55.22-2.93L56.08-1.30L56.12-1.30Q56.09-1.90 56.05-2.54Q56.00-3.18 56.00-3.80L56.00-3.80L56.00-7.87L56.95-7.87L56.95 0L55.92 0L53.06-4.96L52.21-6.58L52.16-6.58Q52.21-5.98 52.25-5.36Q52.30-4.74 52.30-4.12L52.30-4.12L52.30 0L51.35 0Z"
              transform="scale(1.5)"/>
    </g>
</svg>